<?xml version="1.0" standalone="no"?>
<!DOCTYPE svg PUBLIC "-//W3C//DTD SVG 20010904//EN"
 "http://www.w3.org/TR/2001/REC-SVG-20010904/DTD/svg10.dtd">
<svg version="1.0" xmlns="http://www.w3.org/2000/svg"
 width="983.000000pt" height="167.000000pt" viewBox="0 0 983.000000 167.000000"
 preserveAspectRatio="xMidYMid meet">

<g transform="translate(0.000000,167.000000) scale(0.100000,-0.100000)"
fill="#000000" stroke="none">
<path d="M2144 1255 c-18 -19 -23 -31 -19 -48 14 -46 68 -62 98 -29 24 26 21
68 -5 86 -31 22 -45 20 -74 -9z"/>
<path d="M4145 1255 c-14 -13 -25 -31 -25 -40 0 -23 37 -55 63 -55 53 0 77 75
35 104 -31 22 -45 20 -73 -9z"/>
<path d="M7306 1248 c-9 -12 -16 -28 -16 -34 0 -19 35 -44 61 -44 32 0 49 17
49 50 0 14 -5 31 -12 38 -20 20 -65 14 -82 -10z"/>
<path d="M8235 1263 c-41 -4 -75 -23 -42 -23 10 0 29 -11 42 -25 l25 -24 0
-341 c0 -204 -4 -349 -10 -360 -5 -10 -24 -24 -42 -31 -33 -13 -32 -13 35 -17
37 -1 97 -2 135 0 l67 3 -40 20 -40 20 -3 91 c-2 73 0 94 13 104 19 15 11 22
114 -95 39 -43 71 -87 71 -97 0 -9 -12 -24 -27 -32 -26 -14 -17 -15 115 -16
93 0 141 4 137 10 -3 6 -13 10 -22 10 -33 0 -86 45 -199 171 l-117 131 79 79
c63 63 87 81 117 86 73 11 35 23 -78 23 -109 0 -149 -11 -86 -23 18 -4 32 -14
36 -27 8 -25 -12 -56 -97 -150 l-58 -63 0 291 0 292 -42 -2 c-24 -1 -61 -3
-83 -5z"/>
<path d="M545 1250 c-3 -6 0 -12 7 -14 55 -15 74 -25 92 -49 20 -28 21 -39 21
-342 0 -302 -1 -315 -21 -342 -13 -18 -35 -31 -63 -37 -87 -20 -36 -31 157
-34 166 -2 192 0 192 13 0 8 -9 15 -20 15 -33 0 -71 23 -86 51 -21 41 -20 311
1 329 9 7 17 11 19 9 55 -66 214 -272 228 -294 33 -55 16 -95 -42 -95 -13 0
-20 -5 -18 -12 7 -20 398 -24 398 -4 0 7 -12 16 -27 19 -56 11 -114 70 -277
278 l-167 213 122 115 c144 137 175 161 206 161 14 0 23 6 23 15 0 13 -21 15
-131 15 -100 0 -130 -3 -127 -12 3 -7 13 -15 24 -17 30 -5 44 -21 44 -48 0
-19 -36 -62 -145 -172 l-145 -146 0 138 c0 182 19 227 94 227 16 0 26 6 26 15
0 13 -28 15 -189 15 -117 0 -192 -4 -196 -10z"/>
<path d="M6276 1237 c23 -7 49 -19 59 -27 28 -24 71 -121 200 -458 87 -225
124 -312 134 -310 9 2 69 135 151 333 181 438 177 430 256 459 37 14 33 15
-101 15 -121 0 -135 -2 -105 -12 49 -17 66 -56 53 -122 -14 -67 -194 -508
-203 -498 -17 18 -190 510 -190 539 0 41 20 66 66 80 33 10 9 12 -161 12 -168
0 -193 -2 -159 -11z"/>
<path d="M3726 1045 c-18 -39 -38 -64 -71 -87 l-47 -33 36 -3 36 -3 0 -220 0
-220 26 -24 c14 -13 44 -27 67 -30 71 -11 169 22 184 61 10 27 -6 27 -37 0
-41 -34 -74 -33 -111 3 l-29 29 0 201 0 201 75 0 c60 0 75 3 75 15 0 12 -15
15 -75 15 l-75 0 0 75 c0 93 -17 100 -54 20z"/>
<path d="M1591 946 c-42 -6 -76 -16 -79 -23 -2 -8 5 -13 17 -13 12 0 30 -9 41
-20 19 -19 20 -33 20 -203 0 -171 -1 -185 -20 -205 -12 -12 -30 -22 -40 -22
-11 0 -20 -7 -20 -15 0 -13 19 -15 132 -13 88 2 133 7 135 15 2 6 -10 14 -27
18 -47 10 -53 32 -51 204 2 128 5 163 21 198 17 38 23 43 51 43 24 0 43 -9 66
-32 29 -28 35 -30 58 -20 19 9 25 19 25 42 0 26 -6 33 -36 46 -52 22 -139 2
-173 -40 -20 -24 -31 -19 -31 13 0 17 -3 31 -7 34 -5 2 -41 -2 -82 -7z"/>
<path d="M2141 945 c-51 -6 -86 -15 -89 -22 -2 -8 5 -13 17 -13 12 0 30 -9 41
-20 19 -19 20 -33 20 -205 0 -172 -1 -186 -20 -205 -11 -11 -29 -20 -40 -20
-11 0 -20 -7 -20 -15 0 -13 19 -15 132 -13 136 3 167 14 104 36 -19 7 -37 20
-41 30 -3 9 -6 96 -6 192 0 96 -4 195 -7 220 l-7 45 -84 -10z"/>
<path d="M2604 949 c-18 -5 -46 -25 -63 -44 -25 -29 -31 -44 -31 -84 0 -65 29
-104 110 -151 96 -55 130 -90 130 -135 0 -71 -79 -110 -140 -68 -33 23 -52 48
-71 97 -27 68 -39 57 -39 -37 0 -88 5 -104 26 -86 9 8 32 6 82 -6 56 -14 76
-15 112 -5 96 26 142 122 102 212 -22 50 -49 72 -137 112 -79 36 -105 61 -105
102 0 44 29 77 69 77 42 0 81 -30 106 -81 30 -61 42 -53 37 26 -2 37 -6 69 -9
72 -2 2 -11 0 -20 -6 -12 -7 -27 -7 -52 2 -42 15 -64 16 -107 3z"/>
<path d="M4141 945 c-51 -6 -86 -15 -89 -22 -2 -8 5 -13 17 -13 12 0 30 -9 41
-20 19 -19 20 -33 20 -205 0 -172 -1 -186 -20 -205 -11 -11 -29 -20 -40 -20
-11 0 -20 -7 -20 -15 0 -13 19 -15 132 -13 88 2 133 7 135 15 2 6 -10 14 -27
18 -16 4 -35 16 -41 27 -7 13 -11 86 -11 197 0 97 -2 196 -6 221 l-7 45 -84
-10z"/>
<path d="M4548 947 c-79 -10 -103 -29 -53 -41 41 -10 49 -40 52 -202 4 -183
-5 -224 -55 -239 -64 -18 -27 -30 106 -33 113 -2 132 0 132 13 0 8 -6 15 -14
15 -7 0 -25 9 -40 21 l-26 20 0 160 c0 180 9 218 59 243 16 9 49 16 71 16 95
0 110 -34 110 -245 0 -93 -4 -165 -11 -177 -6 -11 -27 -26 -46 -35 -60 -24
-26 -34 112 -31 130 3 166 15 103 33 -51 16 -58 40 -58 225 0 185 -8 213 -72
246 -54 28 -154 24 -218 -9 -28 -15 -54 -27 -56 -27 -2 0 -4 14 -4 30 0 17 -3
29 -7 28 -5 0 -43 -6 -85 -11z"/>
<path d="M5350 949 c-85 -17 -125 -73 -81 -113 31 -28 66 -14 84 32 19 48 40
65 78 65 48 0 81 -40 87 -107 7 -84 -8 -99 -126 -136 -121 -37 -153 -65 -159
-137 -5 -42 -1 -53 22 -81 16 -19 43 -36 67 -42 63 -17 154 4 187 43 10 13 16
11 40 -14 16 -15 41 -31 56 -35 38 -9 102 12 121 42 21 31 11 43 -15 20 -11
-10 -30 -16 -42 -14 -41 6 -49 40 -49 224 0 155 -2 174 -20 196 -38 49 -158
76 -250 57z m170 -314 c0 -84 -16 -134 -51 -159 -34 -24 -85 -21 -103 6 -23
32 -20 100 5 132 18 23 122 93 142 95 4 1 7 -33 7 -74z"/>
<path d="M3055 938 c-10 -35 -14 -117 -6 -123 6 -3 19 12 31 35 11 22 30 46
43 54 27 17 207 33 207 18 0 -5 -72 -112 -160 -237 -88 -125 -160 -233 -160
-241 0 -12 37 -14 224 -14 224 0 224 0 230 23 8 32 7 127 -1 127 -5 0 -17 -17
-28 -37 -32 -59 -71 -76 -191 -81 -57 -3 -104 -2 -104 1 0 2 72 108 160 233
88 126 160 234 160 241 0 19 -399 19 -405 1z"/>
<path d="M7282 940 c-63 -9 -74 -17 -38 -26 51 -12 56 -33 56 -219 0 -93 -3
-181 -7 -194 -4 -14 -21 -30 -47 -41 l-41 -19 139 0 c77 -1 137 2 133 5 -3 3
-20 13 -39 22 -30 16 -33 22 -39 77 -4 33 -7 138 -8 233 l-1 172 -27 -1 c-16
-1 -52 -5 -81 -9z"/>
<path d="M7755 940 c-32 -13 -66 -55 -74 -92 -17 -73 19 -123 137 -190 44 -25
80 -54 88 -70 46 -88 -29 -172 -120 -134 -37 15 -96 94 -96 127 0 10 -4 21
-10 24 -6 4 -10 -25 -10 -80 0 -84 1 -85 21 -75 15 9 31 8 66 -4 87 -30 157
-15 206 43 49 59 45 140 -11 197 -15 15 -56 40 -92 57 -90 42 -120 71 -120
118 0 29 6 42 27 59 53 42 126 8 164 -75 l18 -40 0 73 c1 71 -4 83 -27 60 -9
-9 -18 -9 -37 0 -29 14 -100 15 -130 2z"/>
<path d="M8885 940 c-3 -5 0 -10 8 -10 8 0 21 -8 31 -18 25 -29 196 -446 196
-481 0 -45 -44 -138 -69 -146 -11 -3 -36 -1 -55 6 -59 21 -101 -17 -57 -53 50
-39 118 -12 156 62 13 27 72 165 131 307 115 282 124 299 160 315 43 20 26 28
-61 28 -50 0 -85 -4 -85 -10 0 -5 6 -10 13 -10 21 0 47 -34 47 -60 0 -25 -110
-310 -120 -310 -10 0 -120 294 -120 321 0 30 17 49 43 49 10 0 15 5 12 10 -4
6 -53 10 -115 10 -62 0 -111 -4 -115 -10z"/>
</g>
</svg>
